<svg version="1.1" id="Layer_1" xmlns="http://www.w3.org/2000/svg" x="0" y="0" viewBox="0 0 350.9 573.54" xml:space="preserve"><style>@keyframes width_scale{0%{opacity:0}}@keyframes scale{0%{transform:translate(0,0)}}@keyframes scale2{0%{transform:translate(0,0)}}@keyframes scale3{0%{transform:translate(1px,0)}}@keyframes scale4{0%{transform:translate(0,-3px)}}.st2{fill:#635572}.st4{fill:#d7d3df}.st5{fill:#00e0d5}.st6{fill:#87a936}.st7{fill:#00cec3}.st8{fill:#00e2d1}.st9{fill:#5fffef}.st11{fill:#fff}.st12{fill:#fccaa2}.st18{fill:#443f4a}.st22{fill:#5a3921}.st23{fill:#864f26}.st30{fill:#c3811b}.st31{fill:#e5a919}.st32{fill:#f2cd15}.st36{fill:#05ccc2}</style><linearGradient id="SVGID_1_" gradientUnits="userSpaceOnUse" x1="136.582" y1="276.603" x2="20.207" y2="244.587"><stop offset="0" stop-color="#e9ca00"/><stop offset="1" stop-color="#eee867" stop-opacity="0"/></linearGradient><path style="animation:1s width_scale infinite linear alternate" fill="url(#SVGID_1_)" d="M93.1 257.87l-75.18-50.06L0 275.17l92.39-14.29z"/><path d="M283.08 288.62l-43.86-21.42a13.588 13.588 0 01-11.41-13.41l-18.35-98.85c0-8.38 25.86-23.85 34.13-22.51l58.02 9.44a13.588 13.588 0 0111.41 13.41v107.95c-.01 8.37-21.67 26.74-29.94 25.39z" fill="#4e4060"/><path class="st2" d="M310.41 147.29a13.59 13.59 0 00-8.81-5.43l-58.02-9.44c-8.27-1.35-34.13 14.13-34.13 22.51l10.24 55.14 37.44-24.09 53.28-38.69z"/><path d="M278.13 289.46l-58.02-9.44a13.588 13.588 0 01-11.41-13.41V158.65c0-8.38 7.5-14.76 15.77-13.41l58.02 9.44a13.588 13.588 0 0111.41 13.41v107.95c0 8.38-7.5 14.76-15.77 13.42z" fill="#a698b6"/><path class="st4" d="M200.85 255.23l-25.48-12.38s34.41-79.23 44.87-86.78c7.69-5.55 19.03 24.97 11.07 42.03-5.84 12.48-30.46 57.13-30.46 57.13z"/><path class="st2" d="M224.53 151.43c-11.3 5.74-19.63 18.33-22.96 36.66-3.33 18.33 5 18.89 5 18.89s24.26-57.04 17.96-55.55z"/><path class="st4" d="M175.36 242.85c-7.35 3.16-32.55 12.15-48.08 16.69-1.22.17-4.72 1.84-1.73 5.76 5.03 6.59 51.65 4.65 67.18-.32 9.99-3.2 5.49-16.8 5.49-16.8s-11.19-10.34-22.86-5.33z"/><path class="st2" d="M125.76 258.94s8.77-2.36 11.49-3.31c5.82 4.71 7.66 15.32 7.66 15.32s-15.76.07-20.92-2.8c-5.15-2.88 1.77-9.21 1.77-9.21z"/><path class="st5" d="M178.36 466.88c-.64.25-1.99.26-2.39.12-.76-.26.57-1.27.25-7.4-.23-4.58-.37-7.26-.37-7.26l1.13-.06.37 7.32c.31 6 1.69 7.02 1.01 7.28z"/><path class="st6" d="M175.96 467.01c.4.14 1.76.13 2.39-.12.45-.18 0-.69-.45-2.77l-1.79.09c-.24 2.11-.65 2.62-.15 2.8z"/><path class="st7" d="M176.98 452.29l-1.13.06s.03.67.1 1.91l1.13-.06c-.06-1.23-.1-1.91-.1-1.91z"/><path class="st8" d="M180.44 448.42a4.218 4.218 0 01-4 4.43 4.218 4.218 0 01-4.43-4 4.218 4.218 0 014-4.43 4.218 4.218 0 014.43 4z"/><path class="st7" d="M177.26 451.07c-2.01.1-3.72-1.44-3.82-3.45-.06-1.15.42-2.2 1.22-2.91a4.2 4.2 0 00-2.64 4.13c.12 2.33 2.1 4.12 4.43 4 2.2-.11 3.91-1.89 4-4.04-.53 1.27-1.74 2.2-3.19 2.27z"/><path class="st9" d="M179.4 447.64c-.34.68-1.46.8-2.51.28-1.05-.52-1.63-1.49-1.29-2.17.34-.68 1.46-.8 2.51-.28 1.05.52 1.62 1.49 1.29 2.17z"/><path class="st5" d="M80.04 485.73c-.78.71-2.71 1.45-3.36 1.48-1.23.04.12-2.13-3.66-10.71-2.83-6.42-4.47-10.17-4.47-10.17l1.59-.7s1.7 3.87 4.51 10.26c3.7 8.38 6.22 9.08 5.39 9.84z"/><path class="st6" d="M76.69 487.2c.65-.02 2.58-.77 3.36-1.48.55-.5-.38-.98-2.15-3.71l-2.51 1.1c.8 3.17.48 4.12 1.3 4.09z"/><path class="st7" d="M70.14 465.62l-1.59.7s.41.94 1.18 2.68l1.59-.7c-.76-1.72-1.18-2.68-1.18-2.68z"/><path class="st8" d="M72.98 458.21c1.43 3.26-.05 7.07-3.31 8.5-3.26 1.43-7.07-.05-8.5-3.31-1.43-3.26.05-7.07 3.31-8.5 3.26-1.43 7.06.05 8.5 3.31z"/><path class="st7" d="M69.87 463.74a5.56 5.56 0 01-7.33-2.85c-.71-1.61-.59-3.37.16-4.82a6.452 6.452 0 00-1.53 7.34c1.43 3.26 5.24 4.74 8.5 3.31 3.08-1.35 4.56-4.82 3.52-7.95a5.558 5.558 0 01-3.32 4.97z"/><path class="st9" d="M71.07 457.67c-.11 1.15-1.65 1.94-3.43 1.76-1.78-.18-3.14-1.25-3.02-2.4.11-1.15 1.65-1.94 3.43-1.76 1.78.17 3.13 1.25 3.02 2.4z"/><path class="st5" d="M198.07 477.91c-.91-.52-2.22-2.13-2.44-2.74-.42-1.16 2.06-.54 9.07-6.77l8.3-7.38 1.15 1.3-8.38 7.45c-6.84 6.08-6.73 8.7-7.7 8.14z"/><path class="st6" d="M195.63 475.17c.22.61 1.52 2.22 2.44 2.74.65.37.82-.66 2.87-3.19l-1.82-2.05c-2.76 1.74-3.76 1.73-3.49 2.5z"/><path class="st7" d="M214.16 462.31l-1.15-1.3s-.77.68-2.19 1.95l1.15 1.3c1.41-1.26 2.19-1.95 2.19-1.95z"/><path class="st8" d="M222.09 462.74a6.433 6.433 0 01-9.1-.54c-2.37-2.66-2.13-6.74.54-9.1s6.74-2.13 9.1.54c2.36 2.65 2.12 6.73-.54 9.1z"/><path class="st7" d="M215.87 461.48a5.565 5.565 0 01.46-7.85 5.517 5.517 0 014.63-1.32 6.437 6.437 0 00-7.45.79 6.452 6.452 0 00-.54 9.1c2.23 2.51 5.99 2.86 8.64.91-1.99.6-4.25.04-5.74-1.63z"/><path class="st9" d="M222.02 460.75c-1.13.25-2.35-.98-2.73-2.73-.38-1.75.23-3.37 1.35-3.61 1.13-.25 2.35.98 2.73 2.73.38 1.75-.22 3.36-1.35 3.61z"/><path class="st5" d="M105.23 485.19c-.62.27-1.95.32-2.35.2-.76-.23.51-1.27-.01-7.28-.39-4.49-.61-7.11-.61-7.11l1.11-.1s.23 2.71.62 7.17c.51 5.88 1.9 6.83 1.24 7.12z"/><path class="st6" d="M102.88 485.39c.4.12 1.73.07 2.35-.2.44-.19-.03-.68-.54-2.7l-1.75.15c-.17 2.09-.56 2.6-.06 2.75z"/><path class="st7" d="M103.38 470.91l-1.11.1s.06.66.16 1.88l1.11-.1c-.11-1.21-.16-1.88-.16-1.88z"/><path class="st8" d="M106.64 466.99c.2 2.28-1.49 4.29-3.77 4.48s-4.29-1.49-4.49-3.77a4.132 4.132 0 013.77-4.48c2.28-.2 4.29 1.49 4.49 3.77z"/><path class="st7" d="M103.6 469.71c-1.97.17-3.7-1.29-3.87-3.25-.1-1.13.34-2.17 1.1-2.89-1.57.7-2.61 2.33-2.45 4.14.2 2.28 2.2 3.97 4.48 3.77a4.154 4.154 0 003.79-4.1 3.597 3.597 0 01-3.05 2.33z"/><path class="st9" d="M105.59 466.26c-.31.68-1.41.84-2.45.36-1.05-.48-1.65-1.41-1.34-2.09.31-.68 1.41-.84 2.45-.36 1.04.48 1.65 1.42 1.34 2.09z"/><path class="st5" d="M64.84 504.15c.27.7.27 2.18.12 2.61-.29.83-1.39-.62-8.07-.31-5 .23-7.92.37-7.92.37l-.06-1.24 7.99-.37c6.53-.3 7.65-1.8 7.94-1.06z"/><path class="st6" d="M64.96 506.76c.15-.44.15-1.91-.12-2.61-.19-.5-.75 0-3.02.48l.09 1.95c2.3.28 2.86.74 3.05.18z"/><path class="st7" d="M48.91 505.58l.06 1.24s.73-.03 2.09-.1l-.06-1.23c-1.35.06-2.09.09-2.09.09z"/><path class="st8" d="M44.71 501.79a4.597 4.597 0 014.81 4.38 4.597 4.597 0 01-4.38 4.81 4.597 4.597 0 01-4.81-4.38 4.597 4.597 0 014.38-4.81z"/><path class="st7" d="M47.59 505.28a3.97 3.97 0 01-3.78 4.15c-1.25.06-2.39-.47-3.16-1.35.7 1.78 2.47 3 4.49 2.9 2.54-.12 4.5-2.27 4.38-4.81a4.595 4.595 0 00-4.39-4.38c1.38.57 2.38 1.9 2.46 3.49z"/><path class="st9" d="M43.85 502.92c.74.37.87 1.6.29 2.74-.57 1.14-1.64 1.77-2.37 1.4-.74-.37-.87-1.6-.29-2.74.57-1.14 1.64-1.77 2.37-1.4z"/><path d="M334.29 555.31c0 5.04-69.85 9.12-156.02 9.12s-156.02-4.08-156.02-9.12c0-5.04 69.85-9.12 156.02-9.12s156.02 4.08 156.02 9.12z" fill="#dad5e0"/><path class="st4" d="M240.46 336.66l-6.37-16.36-35.87-18.25-74.01 35.6a9.899 9.899 0 00-5.34 11.27c5.41 22.26 20.71 84.89 22.74 90.35 12.08 3.63 22.76-1.18 22.76-1.18l-6.5-73.14c33.99-9.19 82.59-28.29 82.59-28.29z"/><path class="st11" d="M194.19 299.32s-1.84 19.25 15.36 29.43c17.2 10.19 30.37 11.32 30.37 11.32l30.29 164.73s7.09 6.33 17.55-1.33l-7.39-199.52-86.18-4.63z"/><path class="st12" d="M233.24 143.28l-.34 15.44 20.48.7.44-20.08c-8.6 4.87-17.09 4.47-20.58 3.94z"/><path d="M253.82 139.34l.34-15.47-20.48-.7-.44 20.11c3.49.53 11.98.93 20.58-3.94z" fill="#c19e82"/><path d="M241.69 162.21c12.12 0 15.03-8.4 15.45-11.02-8.61-2.16-17.13-3.04-27.73-1.25-.25 3.05.37 12.27 12.28 12.27z" fill="#eab794"/><path class="st11" d="M272.67 156.31c-4.41-4.16-8.96-6.46-14.58-8.32-.75-.25-3.68-1-4.44-1.15-.52 2.62-8.98 12.29-14.6 12.4-9.15.17-6.86-6.71-6.55-9.76-10.67-.54-21.23 14.73-28.18 41.22-5.5 20.95-18.53 93.99-9.52 114.82 10.28 5.81 76.18 9.38 87.35 3.13 3.19-7.42-.68-114.41-1.72-127.61-1.03-13.19-1.96-19.26-7.76-24.73z"/><path class="st2" d="M191.67 291s48.07 11.7 92.58 3.12c1.9 4.68.14 10.57.14 10.57s-45.9 7.39-92.37-3.97c-1.96-4.03-.35-9.72-.35-9.72zm77.03-137.95c-8.12 5.08-17.76 22.76-11.14 42.4 5.41 16.07 27.07 16.24 27.07 16.24l.68 5.92s-23.69 5.58-33.84-18.78 3.21-42.64 10.15-49.41c3.22-2.87 6.58.75 7.08 3.63z"/><path fill="#fcca01" d="M260.98 289.76L92.01 261.18l.83-3.84 169.05 26.65z"/><path transform="rotate(9.95 96.284 259.986)" fill="#f18e1b" d="M93.5 257.2h5.57v5.57H93.5z"/><path d="M282.12 298.91l-23.18-6.31c-1.27-4.04-.98-7.77 1.73-11.02l23.18.98-1.73 16.35z" fill="#4a5061"/><path class="st18" d="M196.65 94.73c-4.57-9.54-10.73-35.18-9.94-45.12.8-9.94 2.39 1.99 2.39 1.99s-.4-21.07 11.73-33c4.77-5.96 4.57-3.98 2.78-.4 13.52-13.72 44.33-23.46 36.77-15.11 12.72-6.96 40.35 11.73 20.67 7.95 22.06 8.35 26.83 23.46 26.83 23.46s-1.19-6.36 1.39-4.97c2.58 1.39 8.55 34.19-3.38 61.22-11.92 27.04-73.34 19.68-89.24 3.98z"/><path class="st12" d="M212.27 97.9c2.63 6.81 2.58 12.06-1.87 14.03-4.45 1.97-14.06-.62-16.69-7.44-2.63-6.82-1.16-13.94 3.29-15.92 4.45-1.96 12.64 2.51 15.27 9.33z"/><path class="st12" d="M201.29 105.99c3.57 23.34 20.21 39 43.69 36.93 21.36-1.89 36.12-31.74 36.73-58.97.6-27.23-13.99-48.77-39.78-48.37-39.5.62-48.17 21.23-40.64 70.41z"/><path class="st12" d="M269.11 95.73c-2.72 6.78-2.73 12.03 1.7 14.06 4.42 2.03 14.06-.45 16.78-7.23 2.72-6.79 1.33-13.93-3.09-15.96-4.43-2.03-12.68 2.34-15.39 9.13z"/><linearGradient id="SVGID_2_" gradientUnits="userSpaceOnUse" x1="421.842" y1="28.511" x2="411.825" y2="34.738" gradientTransform="rotate(14.557 69.308 -621.543)"><stop offset="0" stop-color="#bd8078"/><stop offset="1" stop-color="#e6b8ac" stop-opacity="0"/></linearGradient><path d="M234.91 93.26c6.26-1.25 11.53-.22 12.7 4.42s-5.16 7.47-10.35 8.08c-5.2.61-7.22-11.52-2.35-12.5z" fill="url(#SVGID_2_)"/><path d="M232.16 94.14s.45-.16 1.25-.43c.4-.11.9-.26 1.47-.4.57-.13 1.23-.28 1.95-.36.72-.1 1.51-.16 2.35-.17.84-.01 1.73.04 2.64.2.91.15 1.85.41 2.75.82.9.41 1.78.97 2.46 1.78.68.8 1.1 1.88 1.06 2.95-.03 1.07-.51 2.03-1.07 2.79-.57.76-1.23 1.39-1.92 1.89-.67.51-1.35.93-1.99 1.28-.63.36-1.25.62-1.79.86-.55.21-1.02.42-1.42.55-.8.26-1.26.4-1.26.4l1.19-.58c.38-.17.82-.43 1.34-.69.5-.29 1.07-.61 1.67-1 .6-.38 1.22-.83 1.83-1.36.62-.51 1.17-1.15 1.67-1.83.48-.69.81-1.51.83-2.34.02-.83-.3-1.64-.86-2.3-.55-.67-1.32-1.18-2.12-1.56-.81-.37-1.66-.66-2.52-.83-.85-.17-1.7-.29-2.5-.33-.81-.05-1.58-.04-2.28 0-1.42.08-2.6.26-3.42.4-.84.17-1.31.26-1.31.26z" fill="#946054"/><linearGradient id="SVGID_3_" gradientUnits="userSpaceOnUse" x1="393.617" y1="16.082" x2="397.773" y2="30.184" gradientTransform="rotate(14.557 69.308 -621.543)"><stop offset="0" stop-color="#c99a69"/><stop offset="1" stop-color="#c99a69" stop-opacity="0"/></linearGradient><path d="M232.18 76.35c.57 4.29 2.98 16.88-9.09 17.88-12.07 1.01-9.2-13.58-9.2-13.58s12.78-3.74 18.29-4.3z" fill="url(#SVGID_3_)"/><path class="st22" d="M228.18 92.98a1.649 1.649 0 11-1.18-2.01c.88.23 1.4 1.13 1.18 2.01z"/><path class="st23" d="M229.58 75.58c-13.84.96-21.43 6.46-12.64 6.39 8.8-.07 21.76-7.03 12.64-6.39z"/><linearGradient id="SVGID_4_" gradientUnits="userSpaceOnUse" x1="458.977" y1="-.888" x2="463.134" y2="13.214" gradientTransform="scale(-1 1) rotate(14.555 -203.401 -2757.26)"><stop offset="0" stop-color="#c99a69"/><stop offset="1" stop-color="#c99a69" stop-opacity="0"/></linearGradient><path d="M245.75 76.35c-.57 4.29-2.98 16.88 9.09 17.88 12.07 1.01 9.2-13.58 9.2-13.58s-12.78-3.74-18.29-4.3z" fill="url(#SVGID_4_)"/><path class="st22" d="M249.76 92.98a1.649 1.649 0 103.191-.832 1.649 1.649 0 00-3.191.832z"/><path class="st23" d="M248.35 75.58c13.84.96 21.43 6.46 12.64 6.39-8.79-.07-21.76-7.03-12.64-6.39z"/><path d="M216.08 97.44c0 .93-2.41 1.68-5.38 1.68s-5.38-.75-5.38-1.68c0-.93 2.41-1.68 5.38-1.68s5.38.76 5.38 1.68zm56.76 0c0 .93-2.41 1.68-5.38 1.68s-5.38-.75-5.38-1.68c0-.93 2.41-1.68 5.38-1.68s5.38.76 5.38 1.68z" fill="#dfa09b"/><path d="M227.45 116.66s-.03.1-.08.3c-.02.1-.07.22-.09.36-.01.14-.01.31-.02.49-.02.18-.01.38.03.6.04.22.03.46.11.71.07.25.14.51.21.78.1.27.21.55.32.84.09.3.28.57.44.87.15.3.33.59.57.87.4.6.96 1.09 1.5 1.64.62.46 1.24.97 1.98 1.31.68.44 1.5.65 2.27.95.39.12.81.19 1.21.29.41.07.8.22 1.22.23.82.04 1.62.22 2.42.19.79-.01 1.56-.01 2.28-.02.73-.07 1.41-.14 2.05-.21.64-.05 1.22-.14 1.73-.24.51-.09.96-.17 1.33-.23.75-.12 1.17-.18 1.17-.18l-1.13.36c-.36.11-.8.24-1.3.4-.25.08-.52.16-.8.24-.29.07-.6.11-.91.18-.64.12-1.33.24-2.07.37-.74.08-1.53.12-2.35.17-.41.04-.83 0-1.25-.02l-1.28-.09c-.43-.01-.86-.15-1.29-.23-.43-.1-.87-.17-1.29-.29-.83-.33-1.69-.57-2.43-1.06-.8-.38-1.44-.98-2.1-1.5-.58-.61-1.13-1.21-1.51-1.88-.22-.31-.39-.64-.53-.97-.15-.33-.32-.63-.4-.96-.09-.32-.2-.62-.27-.91-.04-.3-.08-.58-.12-.85-.04-.26-.01-.52-.02-.75 0-.23 0-.44.05-.64.04-.19.07-.36.1-.5.05-.14.11-.25.15-.34.06-.18.1-.28.1-.28z" fill="#412b24"/><path class="st18" d="M266.47 49.4c5.21 5.97 14.24 33.23 14.55 39.2 3.68.61 3.22-7.2 3.22-7.2s-5.05-36.6-16.85-43.03c-11.79-6.43-28.48-12.25-44.1-5.36-15.62 6.89-25.88 20.67-27.26 26.95-1.38 6.28 2.14 25.42 2.14 25.42l2.3 6.89 2.6-.46s-4.9-30.32 6.89-42.11c3.65 4.22 30.43 11.95 23.91 6.35 11.1 4.68 29.63-1.63 21.49-2.44 10.08-1.73 11.11-4.21 11.11-4.21z"/><path d="M265.07 122.78c0 13.73-14.84 18.84-25.67 18.84-10.83 0-25.67-5.12-25.67-18.84s14.84-30.87 25.67-30.87c10.83-.01 25.67 17.14 25.67 30.87z" fill="#2f3641"/><path d="M199.2 87.83l22.25 17.38-3.96 8-15.54-.73m81.9-26.67l-25.89 19.4 3.95 8 15.32-2.54" fill="none" stroke="#2f3641" stroke-width="1.082" stroke-linecap="round" stroke-miterlimit="10"/><path d="M213.74 122.78c0 13.55 14.46 18.7 25.25 18.83V91.92c-10.79.44-25.25 17.3-25.25 30.86z" opacity=".28" fill="#1d2129"/><path class="st30" d="M228.34 124.25a7.011 7.011 0 00-9.57-2.62l-13.11 7.47 6.95 12.2 13.11-7.47c3.36-1.92 4.53-6.21 2.62-9.58z"/><ellipse transform="rotate(-25.324 212.52 132.347)" class="st31" cx="212.51" cy="132.36" rx="11.37" ry="14.41"/><ellipse transform="rotate(-25.324 210.59 133.654)" class="st32" cx="210.59" cy="133.67" rx="11.37" ry="14.41"/><path class="st31" d="M218.57 129.89c2.71 5.72 1.33 12.05-3.08 14.13-4.41 2.09-10.17-.86-12.88-6.58-2.71-5.72-1.33-12.05 3.08-14.13 4.4-2.08 10.17.86 12.88 6.58z"/><path class="st30" d="M203.61 136.82c-2.5-5.28-1.48-11.04 2.15-13.54-.02.01-.05.02-.07.03-4.41 2.09-5.78 8.41-3.08 14.13 2.71 5.72 8.47 8.66 12.88 6.58.34-.16.62-.39.92-.6-4.4 2.03-10.11-.91-12.8-6.6zm54.97-12.57a7.011 7.011 0 019.57-2.62l13.11 7.47-6.95 12.2-13.11-7.47a7.032 7.032 0 01-2.62-9.58z"/><ellipse transform="rotate(-64.672 274.403 132.351)" class="st31" cx="274.4" cy="132.36" rx="14.41" ry="11.37"/><path class="st32" d="M266.06 128.8c-3.41 7.2-1.57 15.2 4.11 17.89 5.67 2.69 13.03-.97 16.44-8.16 3.41-7.2 1.57-15.2-4.11-17.89-5.68-2.69-13.04.97-16.44 8.16z"/><path class="st31" d="M268.35 129.89c-2.71 5.72-1.33 12.05 3.08 14.13 4.41 2.09 10.17-.86 12.88-6.58 2.71-5.72 1.33-12.05-3.08-14.13s-10.17.86-12.88 6.58z"/><path class="st30" d="M283.31 136.82c2.5-5.28 1.48-11.04-2.15-13.54.02.01.05.02.07.03 4.41 2.09 5.78 8.41 3.08 14.13-2.71 5.72-8.47 8.66-12.88 6.58-.34-.16-.62-.39-.92-.6 4.39 2.03 10.11-.91 12.8-6.6z"/><path d="M231.99 118.25h16.05v1.37h-16.05zm0 4.18h16.05v1.37h-16.05zm0 4.18h16.05v1.37h-16.05zm0 4.17h16.05v1.37h-16.05z" fill="#1d2129"/><path d="M156.11 472.16c8.41-2.33 15.97-7.42 24.6-8.71 8.64-1.3 18.07.11 24.76 5.72 10.28 8.62 11.47 24.04 9.66 37.33-3.43 25.26-13.38 41.18-36.64 45.75-24.36 4.79-41.52 1.54-65.4 1.04-15.28-.32-29.31-3.77-40.51-14.18s-18.73-25.74-16.96-40.92c1.75-14.97 13.91-23.02 25.72-22.12 7.26.56 13.72 5.22 20.99 5.69 24.95 1.63 40.17-5.83 53.78-9.6z" fill="#06f7da"/><path class="st36" d="M124.72 532c-56.74-3.63-66.96-25.76-63.29-47.62-3.02 3.56-5.14 8.2-5.8 13.82-1.78 15.18 5.76 30.51 16.96 40.92 11.2 10.41 25.23 13.86 40.51 14.18 23.88.5 41.04 3.75 65.4-1.04 22.94-4.51 32.92-20.07 36.48-44.72-11.47 22.14-37.41 27.83-90.26 24.46z" opacity=".84"/><path class="st36" d="M103.19 494.28c27.48 2.84 55.66-4.24 69.01-12.32 10.98-6.64 3.57-12.24-3.54-14.69-4.13 1.76-8.23 3.68-12.55 4.88-13.61 3.77-28.83 11.23-53.77 9.61-3.98-.26-7.73-1.78-11.5-3.19-11.34 5.34-6.4 13.77 12.35 15.71z" opacity=".61"/><path class="st2" d="M167.81 419.44s-21.93 1.07-35.04 1.87c6 17.4 8.56 35.21 8.4 37.19-.16 1.98-16.99 13.51-36.62 17.97-5.94 1.32-8.41 1.98-4.95 4.78 3.46 2.8 9.4 4.78 21.94 3.96 12.54-.83 36.96-4.45 43.06-6.76 6.1-2.31 5.94-4.29 5.11-10.06-.82-5.78-2.89-30.8-1.9-48.95zm102.26 110.45s-3.58 14.51-5.86 18.68c-2.29 4.17-1.89 11.82 18.38 11.82s19.27-8.05 17.29-12.62c-1.99-4.57-5.86-13.51-7.75-17.98-1.98-6.5-.27-33.95-.27-33.95l-28.44.62s6.13 21.57 6.65 33.43z"/><path d="M291.85 495.84l-28.44.62s.78 2.75 1.81 6.81h26.26c.18-4.34.37-7.43.37-7.43zm-124.04-76.4s-21.93 1.07-35.04 1.87c.9 2.62 1.73 5.24 2.47 7.82 7.98-.23 22.14-.81 32.33-2.11.03-2.61.11-5.16.24-7.58z" fill="#77668c"/><path class="st5" d="M78.49 496.7c-.42 1.68-2.39 4.48-3.26 5.1-1.66 1.19-1.79-3.04-14.85-11.39-9.77-6.25-15.47-9.89-15.47-9.89l1.55-2.42s5.89 3.77 15.61 9.98c12.76 8.17 16.87 6.82 16.42 8.62z"/><path class="st7" d="M75.23 501.8c.87-.62 2.84-3.42 3.26-5.1.3-1.2-1.42-1-6.36-3.14l-2.44 3.81c4 3.62 4.43 5.22 5.54 4.43zm-28.77-23.69l-1.55 2.42s1.43.91 4.08 2.61l1.55-2.42-4.08-2.61z"/><path class="st8" d="M43.57 465.31c4.96 3.17 6.41 9.76 3.24 14.72-3.17 4.96-9.76 6.41-14.72 3.24-4.96-3.17-6.41-9.76-3.24-14.72 3.17-4.96 9.76-6.41 14.72-3.24z"/><path class="st7" d="M44.36 475.76c-2.73 4.28-8.42 5.53-12.7 2.79a9.139 9.139 0 01-4.18-6.78c-1.05 4.3.67 8.98 4.61 11.5 4.96 3.17 11.55 1.72 14.72-3.24 2.99-4.68 1.86-10.81-2.44-14.15a9.213 9.213 0 01-.01 9.88z"/><path class="st9" d="M40.44 466.31c.9 1.69-.49 4.18-3.11 5.57-2.61 1.39-5.46 1.15-6.36-.53-.9-1.69.49-4.18 3.11-5.57 2.61-1.39 5.46-1.15 6.36.53z"/><path class="st5" d="M189.49 492.93c-.76-1.56-1.05-4.97-.79-6.01.51-1.98 3.32 1.17 18.69-.84 11.5-1.51 18.2-2.38 18.2-2.38l.37 2.85s-6.93.91-18.37 2.4c-15.01 1.97-17.29 5.65-18.1 3.98z"/><path class="st7" d="M188.7 486.92c-.27 1.04.03 4.45.79 6.01.54 1.11 1.74-.15 6.89-1.69l-.59-4.49c-5.39-.19-6.76-1.14-7.09.17zm37.27-.37l-.37-2.85-4.8.63.37 2.85c3.09-.41 4.8-.63 4.8-.63z"/><g class="scale3" style="animation:1s scale3 infinite linear alternate"><circle class="st8" cx="235.03" cy="483.91" r="10.66"/><path class="st7" d="M229.09 487c-.66-5.03 2.89-9.65 7.92-10.31 2.88-.38 5.62.63 7.56 2.49-1.97-3.97-6.29-6.44-10.93-5.84-5.84.76-9.95 6.12-9.19 11.95.72 5.51 5.53 9.48 10.98 9.26a9.162 9.162 0 01-6.34-7.55z"/><path class="st9" d="M238.16 491.7c-1.77-.71-2.31-3.52-1.21-6.27 1.11-2.75 3.44-4.4 5.21-3.68 1.77.71 2.31 3.52 1.21 6.27-1.1 2.75-3.44 4.4-5.21 3.68z"/></g><path class="st5" d="M102.74 517.75c1.7.35 4.57 2.21 5.23 3.06 1.25 1.61-2.96 1.91-10.78 15.29-5.85 10.01-9.26 15.85-9.26 15.85l-2.48-1.45s3.53-6.04 9.35-15.99c7.64-13.08 6.13-17.13 7.94-16.76z"/><path class="st7" d="M107.97 520.81c-.66-.85-3.53-2.7-5.23-3.06-1.21-.25-.95 1.46-2.88 6.48l3.91 2.28c3.45-4.13 5.04-4.63 4.2-5.7zM85.45 550.5l2.48 1.45s.86-1.46 2.44-4.18l-2.48-1.45c-1.57 2.7-2.44 4.18-2.44 4.18z"/><g class="scale4" style="animation:1s scale4 infinite linear alternate"><path class="st8" d="M72.78 553.9c2.97-5.08 9.5-6.8 14.58-3.82s6.8 9.5 3.82 14.58c-2.97 5.08-9.5 6.8-14.58 3.82-5.08-2.97-6.79-9.49-3.82-14.58z"/><path class="st7" d="M83.19 552.7c4.38 2.56 5.86 8.19 3.3 12.57a9.168 9.168 0 01-6.6 4.45c4.34.87 8.95-1.03 11.31-5.06 2.97-5.08 1.26-11.61-3.82-14.58a10.65 10.65 0 00-14.04 3.01 9.11 9.11 0 019.85-.39z"/><path class="st9" d="M73.9 556.99c1.65-.96 4.2.33 5.69 2.88 1.5 2.56 1.37 5.41-.28 6.37-1.65.96-4.2-.33-5.69-2.88-1.49-2.55-1.36-5.41.28-6.37z"/></g><path class="st5" d="M96.68 487.13c-1.88 1.03-6.05 1.59-7.34 1.32-2.46-.5 1.25-4.16-2.14-22.95-2.53-14.05-4.01-22.25-4.01-22.25l3.48-.63s1.53 8.47 4.04 22.45c3.32 18.37 7.98 20.96 5.97 22.06z"/><path class="st7" d="M89.34 488.45c1.29.27 5.47-.29 7.34-1.32 1.33-.73-.28-2.13-2.49-8.37l-5.48.99c.08 6.63-1.01 8.37.63 8.7z"/><g style="animation:2s scale infinite linear alternate"><path class="st7" d="M86.68 442.63l-3.48.63s.37 2.06 1.06 5.87l3.48-.63c-.69-3.79-1.06-5.87-1.06-5.87z"/><path class="st8" d="M95.82 429.31c1.28 7.14-3.46 13.96-10.59 15.25-7.14 1.28-13.96-3.46-15.25-10.59-1.28-7.14 3.46-13.96 10.59-15.25 7.14-1.29 13.97 3.46 15.25 10.59z"/><path class="st7" d="M87.04 438.77c-6.15 1.11-12.04-2.98-13.15-9.14-.63-3.52.44-6.95 2.62-9.45-4.76 2.65-7.56 8.12-6.53 13.79 1.28 7.14 8.11 11.88 15.25 10.59 6.73-1.21 11.33-7.36 10.75-14.05-1.1 4.12-4.47 7.45-8.94 8.26z"/><path class="st9" d="M92.3 427.32c-.77 2.22-4.19 3.05-7.64 1.85-3.45-1.2-5.61-3.97-4.84-6.19.77-2.22 4.19-3.05 7.64-1.85 3.44 1.2 5.61 3.97 4.84 6.19z"/></g><path class="st5" d="M195.26 475.35c-2.12.26-6.21-.77-7.31-1.5-2.1-1.38 2.7-3.4 6.54-22.1 2.87-13.99 4.55-22.14 4.55-22.14l3.46.71s-1.73 8.43-4.59 22.34c-3.75 18.28-.39 22.41-2.65 22.69z"/><path class="st7" d="M187.95 473.85c1.1.73 5.19 1.76 7.31 1.5 1.51-.18.53-2.08.8-8.7l-5.46-1.12c-2.39 6.19-4.05 7.4-2.65 8.32zm14.55-43.53l-3.46-.71s-.42 2.05-1.2 5.84l3.46.71c.78-3.77 1.2-5.84 1.2-5.84z"/><g class="scale2" style="animation:1.5s scale2 infinite linear alternate"><path class="st8" d="M215.94 421.35c-1.46 7.1-8.4 11.68-15.5 10.22-7.1-1.46-11.68-8.4-10.22-15.5 1.46-7.1 8.4-11.68 15.5-10.22 7.1 1.46 11.68 8.4 10.22 15.5z"/><path class="st7" d="M204.28 426.87c-6.12-1.26-10.07-7.24-8.81-13.37.72-3.5 2.99-6.29 5.95-7.8-5.41.69-10.03 4.73-11.19 10.37-1.46 7.1 3.12 14.04 10.22 15.5 6.7 1.38 13.26-2.62 15.2-9.05-2.56 3.42-6.92 5.26-11.37 4.35z"/><path class="st9" d="M213.41 418.19c-1.54 1.77-5.02 1.27-7.78-1.12-2.75-2.39-3.74-5.77-2.19-7.54 1.54-1.77 5.02-1.27 7.78 1.12 2.75 2.39 3.73 5.77 2.19 7.54z"/></g><path class="st5" d="M73.89 515.23c.92.72 2.1 2.69 2.25 3.39.28 1.34-2.35.27-11.03 6.02-6.49 4.3-10.28 6.8-10.28 6.8l-1.06-1.61 10.37-6.87c8.47-5.6 8.76-8.49 9.75-7.73z"/><path class="st7" d="M76.13 518.63c-.15-.7-1.33-2.67-2.25-3.39-.65-.51-1 .6-3.66 3.05l1.68 2.53c3.31-1.47 4.42-1.3 4.23-2.19zm-22.37 11.21l1.06 1.61 2.71-1.8-1.06-1.61c-1.75 1.17-2.71 1.8-2.71 1.8z"/><path class="st8" d="M45.12 528.14c3.3-2.18 7.74-1.28 9.92 2.02 2.18 3.3 1.28 7.74-2.02 9.92-3.3 2.18-7.74 1.28-9.92-2.02a7.165 7.165 0 012.02-9.92z"/><path class="st7" d="M51.75 530.49a6.172 6.172 0 01-7.04 9.28 7.162 7.162 0 008.31.3c3.3-2.18 4.2-6.62 2.02-9.92a7.148 7.148 0 00-9.35-2.35c2.29-.34 4.69.63 6.06 2.69z"/><path class="st9" d="M44.93 530.58c1.28-.09 2.43 1.44 2.57 3.42s-.78 3.67-2.06 3.76c-1.28.09-2.43-1.44-2.57-3.42s.78-3.67 2.06-3.76z"/><path class="st5" d="M158.62 496.06c-.97.38-3.03.39-3.64.19-1.16-.4.86-1.94.39-11.26-.36-6.97-.56-11.04-.56-11.04l1.73-.09s.21 4.2.57 11.14c.45 9.1 2.55 10.65 1.51 11.06z"/><path class="st7" d="M154.98 496.24c.61.21 2.67.2 3.64-.19.69-.27-.01-1.05-.69-4.22l-2.72.14c-.37 3.24-1.01 4.01-.23 4.27zm1.54-22.39l-1.73.09s.05 1.02.15 2.91l1.73-.09c-.09-1.87-.15-2.91-.15-2.91z"/><path class="st8" d="M161.78 467.96a6.419 6.419 0 11-6.74-6.08 6.413 6.413 0 016.74 6.08z"/><path class="st7" d="M156.94 472c-3.05.16-5.65-2.19-5.81-5.25-.09-1.75.64-3.34 1.86-4.42a6.397 6.397 0 00-4.02 6.28c.18 3.54 3.2 6.26 6.74 6.08a6.416 6.416 0 006.08-6.15c-.79 1.94-2.63 3.35-4.85 3.46z"/><path class="st9" d="M160.2 466.78c-.51 1.03-2.22 1.22-3.82.43-1.6-.79-2.48-2.27-1.96-3.3.51-1.03 2.22-1.22 3.82-.43 1.59.79 2.47 2.27 1.96 3.3z"/><path class="st5" d="M121.98 512.26c-.62.84-2.37 1.94-3 2.08-1.2.28-.29-2.1-5.62-9.76-3.99-5.73-3.39-4.89-3.39-4.89l1.42-.99s-.52-.73 3.44 4.97c5.21 7.49 7.81 7.69 7.15 8.59z"/><path class="st7" d="M118.98 514.35c.63-.15 2.37-1.24 3-2.08.44-.6-.56-.89-2.81-3.22l-2.24 1.56c1.39 2.93 1.26 3.92 2.05 3.74zm-7.59-15.65l-1.42.99s.58.84 1.67 2.39l1.42-.99c-1.08-1.54-1.67-2.39-1.67-2.39z"/><path class="st8" d="M112.74 490.92c2.02 2.91 1.31 6.91-1.6 8.93-2.91 2.02-6.91 1.31-8.93-1.6-2.02-2.91-1.31-6.91 1.6-8.93a6.407 6.407 0 018.93 1.6z"/><path class="st7" d="M110.77 496.91a5.537 5.537 0 01-7.71-1.38c-1-1.44-1.22-3.18-.76-4.73a6.427 6.427 0 00-.1 7.46 6.407 6.407 0 008.93 1.6 6.413 6.413 0 001.92-8.43c.36 2.04-.46 4.21-2.28 5.48z"/><path class="st9" d="M110.77 490.75c.11 1.14-1.24 2.21-3.02 2.38-1.78.17-3.3-.62-3.41-1.77-.11-1.14 1.24-2.21 3.02-2.38 1.78-.16 3.3.63 3.41 1.77z"/><path class="st5" d="M123.23 538.15c1.05.03 2.94.84 3.42 1.27.91.83-1.56 1.44-4.81 10.19-2.43 6.55-2.08 5.57-2.08 5.57l-1.62-.6s-.3.85 2.12-5.66c3.18-8.55 1.86-10.8 2.97-10.77z"/><path class="st7" d="M126.65 539.42c-.48-.43-2.38-1.24-3.42-1.27-.74-.02-.41.97-1.04 4.14l2.55.95c1.63-2.81 2.52-3.27 1.91-3.82zm-8.51 15.16l1.62.6s.36-.96 1.01-2.73l-1.62-.6c-.65 1.77-1.01 2.73-1.01 2.73z"/><path class="st8" d="M110.98 557.92c1.23-3.32 4.93-5.02 8.25-3.78 3.32 1.23 5.02 4.93 3.78 8.25-1.23 3.32-4.93 5.02-8.25 3.78a6.425 6.425 0 01-3.78-8.25z"/><path class="st7" d="M117.03 556.12a5.527 5.527 0 013.26 7.12 5.525 5.525 0 01-3.45 3.33c2.67.07 5.2-1.54 6.18-4.18 1.23-3.32-.46-7.02-3.78-8.25-3.14-1.16-6.6.28-8.02 3.24a5.52 5.52 0 015.81-1.26z"/><path class="st9" d="M111.97 559.63c.88-.74 2.52-.24 3.68 1.12 1.15 1.36 1.38 3.07.5 3.81-.88.74-2.52.24-3.68-1.12-1.15-1.36-1.38-3.07-.5-3.81z"/><path class="st5" d="M160.74 538.16c.52-.91 2.13-2.2 2.74-2.41 1.16-.41.53 2.05 6.7 9.06 4.62 5.24 3.92 4.47 3.92 4.47l-1.3 1.14s.6.66-3.99-4.55c-6.03-6.84-8.63-6.74-8.07-7.71z"/><path class="st7" d="M163.48 535.75c-.61.22-2.21 1.51-2.74 2.41-.37.64.66.82 3.16 2.87l2.04-1.8c-1.71-2.76-1.69-3.76-2.46-3.48zm9.32 14.67l1.3-1.14s-.68-.77-1.93-2.19l-1.3 1.14c1.25 1.42 1.93 2.19 1.93 2.19z"/><path class="st8" d="M172.35 558.31c-2.34-2.66-2.09-6.72.57-9.06 2.66-2.34 6.72-2.09 9.06.57 2.34 2.66 2.09 6.72-.57 9.06-2.66 2.34-6.72 2.09-9.06-.57z"/><path class="st7" d="M173.63 552.13a5.536 5.536 0 017.81.49 5.515 5.515 0 011.3 4.62c1.32-2.32 1.11-5.31-.76-7.42a6.413 6.413 0 00-9.06-.57 6.418 6.418 0 00-.94 8.6c-.59-2-.02-4.25 1.65-5.72z"/><path class="st9" d="M174.32 558.25c-.24-1.12.98-2.34 2.73-2.71 1.74-.37 3.35.24 3.59 1.36.24 1.12-.98 2.34-2.73 2.71-1.74.37-3.35-.24-3.59-1.36z"/><path class="st5" d="M135.25 500.92c-1.54.94-5.03 1.59-6.13 1.42-2.09-.32.88-3.55-2.75-19.23l-4.29-18.56 2.9-.67s1.64 7.07 4.33 18.73c3.55 15.31 7.58 17.3 5.94 18.31z"/><path class="st7" d="M129.12 502.33c1.1.17 4.59-.47 6.13-1.42 1.09-.67-.33-1.78-2.44-6.95l-4.57 1.06c.33 5.59-.51 7.1.88 7.31zm-4.14-38.46l-2.9.67s.4 1.71 1.13 4.9l2.9-.67c-.73-3.16-1.13-4.9-1.13-4.9z"/><path class="st8" d="M132.13 452.29c1.38 5.95-2.33 11.89-8.28 13.27-5.95 1.38-11.89-2.33-13.27-8.28-1.38-5.95 2.33-11.89 8.28-13.27 5.95-1.39 11.89 2.32 13.27 8.28z"/><path class="st7" d="M125.13 460.61c-5.13 1.19-10.26-2.01-11.45-7.14a9.51 9.51 0 011.81-8.06c-3.9 2.43-6.02 7.15-4.93 11.87 1.38 5.95 7.32 9.66 13.27 8.28 5.62-1.3 9.23-6.67 8.46-12.27a9.504 9.504 0 01-7.16 7.32z"/><path class="st9" d="M129.08 450.76c-.56 1.9-3.4 2.74-6.35 1.88-2.95-.87-4.89-3.11-4.33-5.01.56-1.9 3.4-2.74 6.35-1.88 2.95.86 4.89 3.1 4.33 5.01z"/><path class="st5" d="M179.03 521.66c.29-1.78 2.08-4.85 2.92-5.57 1.61-1.38 2.12 2.98 16.37 10.46 10.66 5.59 16.87 8.85 16.87 8.85l-1.38 2.64s-6.42-3.37-17.02-8.93c-13.93-7.31-18.07-5.55-17.76-7.45z"/><path class="st7" d="M181.95 516.09c-.85.72-2.64 3.79-2.92 5.57-.2 1.26 1.56.91 6.86 2.68l2.18-4.16c-4.46-3.38-5.05-5.01-6.12-4.09zm31.85 21.95l1.38-2.64-4.45-2.34-1.38 2.64 4.45 2.34z"/><circle transform="rotate(-24.348 223.037 541.172)" class="st8" cx="223.06" cy="541.22" r="11.06"/><path class="st7" d="M216.18 540.29c2.45-4.67 8.22-6.46 12.88-4.01 2.67 1.4 4.39 3.89 4.93 6.64.7-4.54-1.49-9.23-5.78-11.48-5.41-2.84-12.1-.76-14.94 4.65-2.68 5.11-.97 11.35 3.78 14.42-2.18-2.87-2.65-6.83-.87-10.22z"/><path class="st9" d="M221.07 549.71c-1.08-1.66.14-4.37 2.72-6.04s5.54-1.68 6.62-.01c1.08 1.66-.14 4.37-2.72 6.04-2.58 1.66-5.54 1.67-6.62.01z"/><circle transform="rotate(-6.188 163.734 518.248)" class="st8" cx="163.65" cy="518.02" r="6.42"/><path class="st7" d="M159.71 518.89c.4-3.03 3.19-5.16 6.22-4.76a5.53 5.53 0 014.01 2.63 6.413 6.413 0 00-5.44-5.1 6.42 6.42 0 00-7.21 5.51 6.407 6.407 0 004.93 7.1 5.527 5.527 0 01-2.51-5.38z"/><path class="st9" d="M164.25 523.04c-.92-.69-.79-2.41.28-3.83s2.69-2.02 3.6-1.33c.92.69.79 2.41-.28 3.83-1.06 1.43-2.68 2.02-3.6 1.33z"/><path class="st8" d="M128.45 535.74a6.42 6.42 0 1112.241-3.88 6.42 6.42 0 01-12.241 3.88z"/><path class="st7" d="M132.11 530.61c2.91-.92 6.03.69 6.95 3.6.53 1.67.22 3.4-.68 4.75a6.428 6.428 0 002.3-7.1 6.42 6.42 0 00-8.06-4.18c-3.19 1.01-5.03 4.28-4.33 7.49.28-2.06 1.7-3.89 3.82-4.56z"/><path class="st9" d="M130.28 536.49c.23-1.13 1.84-1.74 3.59-1.38s2.97 1.57 2.74 2.7c-.23 1.13-1.84 1.74-3.59 1.38s-2.97-1.58-2.74-2.7z"/><path class="st8" d="M85.57 510.93c.99-3.4 4.55-5.36 7.96-4.37s5.36 4.55 4.37 7.96a6.423 6.423 0 01-7.96 4.37 6.423 6.423 0 01-4.37-7.96z"/><path class="st7" d="M91.47 508.7c2.94.85 4.62 3.93 3.77 6.86a5.521 5.521 0 01-3.2 3.57c2.66-.13 5.07-1.91 5.86-4.61.99-3.4-.97-6.97-4.37-7.96-3.21-.93-6.56.76-7.76 3.81a5.532 5.532 0 015.7-1.67z"/><path class="st9" d="M86.68 512.57c.82-.8 2.5-.42 3.75.85s1.59 2.96.77 3.76c-.82.8-2.5.42-3.75-.85-1.24-1.27-1.59-2.96-.77-3.76z"/><path class="st2" d="M234.55 268.08c-8.07 2.82-10.51 2.46-16.76 1.29-6.25-1.17-8.4 6.44-8.4 6.44s6.08.49 5.59 3.81c-.15 1-1.5 1.6-4.79 1.34-2.29-.14-5.84-.64-5.84-.64s-.39 11.38 11.38 13.07c11.77 1.69 17.12 2.16 19.3-2.81 2.18-4.97 8.19-7.23 12.23-8.97 4.04-1.74 15.84-7.12 15.84-7.12l-10.61-14.6c-.01 0-9.87 5.37-17.94 8.19z"/><path class="st4" d="M296.01 249.03l24.36-14.46s-39.53-67.87-44.92-75.67c-5.39-7.8-23.91 19.42-14.55 35.75 6.85 11.94 35.11 54.38 35.11 54.38z"/><path class="st4" d="M320.51 234.91c4.57 9.06-2.16 18.6-16.57 26.77-22.88 12.96-47.54 21.18-47.54 21.18s-9.93-13.77-11.39-22.58c12.71-6.02 28.48-13.26 42.72-21.41 19.48-11.14 28.21-13.02 32.78-3.96z"/><path class="st2" d="M115.21 268.48c-9.57-1.06-11-10.35-5.23-13.92 5.76-3.58 17.74-1.31 18.88 4.19 1.14 5.5 4.99 10.27 4.99 10.27s-2.82 2-18.64-.54z"/><path d="M284.9 290.94c-.49 4.51-1.76 8.08-2.83 7.96-1.07-.12-1.54-3.87-1.04-8.38.49-4.51 1.76-8.08 2.83-7.96 1.07.12 1.53 3.87 1.04 8.38z" fill="#393d3f"/><linearGradient id="SVGID_5_" gradientUnits="userSpaceOnUse" x1="283.276" y1="344.294" x2="347.831" y2="344.294"><stop offset="0" stop-color="#ffee25"/><stop offset=".018" stop-color="#ffe920"/><stop offset=".102" stop-color="#fed60e"/><stop offset=".189" stop-color="#fdcb04"/><stop offset=".281" stop-color="#fdc700"/><stop offset=".668" stop-color="#f08f34"/><stop offset=".888" stop-color="#e86031"/><stop offset="1" stop-color="#e2312d"/></linearGradient><path d="M304.43 265.27c20.28 1.96 22.61 39.57 20.74 59.01-1.87 19.44-3.64 27.93-6.76 46.71-5.87 35.38-3.04 52.98 11.33 52.3 14.36-.68 17.48-18.04 16.21-36.3-.96-13.81-3.5-27.59-8.06-40.66-8.43-24.14-26.35-51.29-52.99-55.39" fill="none" stroke="url(#SVGID_5_)" stroke-width="3.246" stroke-linecap="round" stroke-miterlimit="10"/></svg>